<svg xmlns="http://www.w3.org/2000/svg" xmlns:xlink="http://www.w3.org/1999/xlink" version="1.1" x="0px" y="0px" viewBox="0 0 512 512" enable-background="new 0 0 512 512" xml:space="preserve"><g><path d="M203.025,361.27c-14.082,0-26.685-7.145-33.922-18.542c2.604-0.166,5.197-0.459,7.747-0.911   c4.079-0.722,6.8-4.614,6.077-8.693c-0.722-4.079-4.607-6.801-8.692-6.078c-3.147,0.557-6.377,0.84-9.599,0.84   c-2.179,0-4.323-0.143-6.436-0.392c-0.843-0.099-1.68-0.217-2.509-0.353c-0.034-0.006-0.067-0.013-0.102-0.018   c-0.8-0.133-1.594-0.283-2.381-0.45c-0.135-0.028-0.268-0.063-0.402-0.093c-0.682-0.15-1.36-0.308-2.032-0.483   c-0.541-0.142-1.076-0.3-1.611-0.458c-0.26-0.076-0.521-0.144-0.779-0.224c-15.351-4.797-27.81-16.203-34.031-30.871   c-0.008-0.02-0.016-0.04-0.024-0.06c-0.317-0.751-0.616-1.513-0.9-2.28c-0.05-0.133-0.097-0.267-0.145-0.4   c-0.238-0.658-0.463-1.323-0.676-1.993c-0.066-0.21-0.132-0.421-0.196-0.632c-0.183-0.6-0.354-1.205-0.516-1.813   c-0.071-0.266-0.143-0.531-0.209-0.798c-0.141-0.564-0.271-1.133-0.395-1.704c-0.064-0.303-0.133-0.606-0.193-0.911   c-0.108-0.548-0.203-1.1-0.296-1.653c-0.054-0.326-0.112-0.649-0.16-0.977c-0.081-0.552-0.147-1.109-0.212-1.667   c-0.039-0.328-0.084-0.654-0.115-0.984c-0.06-0.6-0.1-1.205-0.139-1.81c-0.019-0.288-0.046-0.574-0.061-0.863   c-0.044-0.895-0.068-1.795-0.068-2.701c0-27.245,20.338-50.498,47.309-54.09c2.057-0.274,3.908-1.388,5.114-3.077   c1.205-1.688,1.657-3.802,1.248-5.836c-0.616-3.065-0.929-6.208-0.929-9.34c0-18.259,10.713-35.015,27.293-42.688   c3.759-1.74,5.396-6.197,3.656-9.957c-1.739-3.758-6.192-5.397-9.957-3.657c-21.864,10.119-35.992,32.218-35.992,56.301   c0,1.594,0.062,3.191,0.184,4.783c-30.645,7.544-52.926,35.367-52.926,67.56c0,1.132,0.032,2.257,0.086,3.377   c0.018,0.363,0.049,0.722,0.072,1.084c0.049,0.758,0.101,1.514,0.173,2.266c0.04,0.414,0.091,0.824,0.138,1.235   c0.08,0.701,0.166,1.4,0.268,2.096c0.06,0.41,0.125,0.817,0.191,1.224c0.116,0.707,0.242,1.41,0.379,2.109   c0.072,0.373,0.146,0.744,0.225,1.115c0.162,0.762,0.34,1.518,0.525,2.271c0.073,0.293,0.143,0.588,0.22,0.88   c0.241,0.923,0.503,1.837,0.781,2.745c0.034,0.112,0.064,0.226,0.1,0.337c6.407,20.539,22.088,37.128,42.424,44.579   c0.14,0.051,0.28,0.098,0.42,0.148c0.826,0.296,1.657,0.581,2.498,0.847c0.387,0.124,0.777,0.239,1.167,0.355   c0.587,0.174,1.175,0.343,1.768,0.502c0.555,0.15,1.112,0.292,1.673,0.429c0.418,0.101,0.837,0.197,1.258,0.291   c0.696,0.156,1.394,0.304,2.098,0.439c0.091,0.018,0.179,0.04,0.27,0.057c8.355,20.873,28.385,34.585,51.245,34.585   c4.143,0,7.5-3.358,7.5-7.5S207.168,361.27,203.025,361.27z"/><path d="M402.287,280.609c0.005-0.006,0.01-0.012,0.016-0.018c0.592-0.652,1.167-1.316,1.726-1.992   c0.04-0.048,0.079-0.098,0.119-0.147c0.518-0.631,1.021-1.27,1.511-1.921c0.086-0.114,0.168-0.231,0.254-0.347   c0.432-0.585,0.855-1.175,1.264-1.775c0.134-0.196,0.263-0.396,0.394-0.593c0.347-0.523,0.687-1.049,1.015-1.582   c0.177-0.286,0.347-0.575,0.518-0.863c0.267-0.451,0.53-0.904,0.784-1.362c0.208-0.374,0.408-0.751,0.607-1.13   c0.2-0.381,0.397-0.763,0.589-1.148c0.227-0.456,0.445-0.916,0.659-1.378c0.146-0.316,0.291-0.634,0.432-0.953   c0.231-0.526,0.455-1.055,0.671-1.589c0.108-0.267,0.214-0.534,0.317-0.803c0.224-0.58,0.439-1.163,0.646-1.751   c0.082-0.234,0.16-0.47,0.238-0.706c0.206-0.615,0.403-1.233,0.588-1.858c0.066-0.223,0.129-0.447,0.191-0.671   c0.179-0.633,0.351-1.268,0.508-1.91c0.057-0.233,0.107-0.467,0.162-0.701c0.146-0.63,0.285-1.262,0.41-1.899   c0.053-0.271,0.097-0.544,0.146-0.816c0.107-0.603,0.214-1.205,0.303-1.813c0.051-0.344,0.088-0.69,0.132-1.036   c0.069-0.543,0.142-1.085,0.194-1.633c0.047-0.479,0.076-0.96,0.11-1.441c0.03-0.425,0.069-0.847,0.091-1.274   c0.045-0.921,0.07-1.845,0.07-2.772c0-29.105-22.303-53.117-50.802-56.053c-3.36-25.569-24.367-45.643-50.358-47.559   c-2.902-20.473-17.766-37.137-37.271-42.688c-0.059-0.017-0.117-0.034-0.175-0.05c-0.666-0.187-1.335-0.36-2.01-0.521   c-0.141-0.033-0.281-0.065-0.422-0.097c-0.616-0.141-1.236-0.274-1.86-0.393c-0.209-0.04-0.419-0.075-0.629-0.112   c-0.573-0.102-1.148-0.2-1.729-0.283c-0.276-0.04-0.556-0.071-0.835-0.106c-0.526-0.067-1.053-0.134-1.584-0.185   c-0.369-0.036-0.742-0.058-1.113-0.085c-0.453-0.034-0.902-0.073-1.357-0.095c-0.688-0.033-1.38-0.265-2.073-0.271   c-0.143-0.001-0.282-0.229-0.425-0.229c-0.006,0-0.013,0-0.02,0s-0.014,0-0.021,0c-28.668,0-51.991,23.55-51.991,52.229   c0,0.309,0.013,0.725,0.027,1.031l0.009,0.255c0.003,0.095,0.016,0.214,0.021,0.308c0.189,7.218,1.816,14.19,4.88,20.709   c1.277,2.718,3.977,4.318,6.793,4.318c1.068,0,2.154-0.226,3.186-0.711c3.748-1.762,5.359-6.228,3.598-9.977   c-2.318-4.931-3.493-10.218-3.493-15.718c0-20.401,16.593-36.999,36.992-37.01c18.199,0.01,33.365,13.254,36.398,30.619   c-3.533,0.722-6.99,1.791-10.344,3.209c-3.814,1.614-5.6,6.014-3.985,9.829c1.613,3.816,6.014,5.6,9.829,3.986   c4.865-2.058,10.037-3.108,15.371-3.129C333.32,154.035,351,171.903,351,193.896c0,0.004,0,0.008,0,0.012   c0.007,4.137,3.362,7.488,7.5,7.488c0.176,0,0.352-0.006,0.524-0.018c0.326-0.01,0.957-0.019,1.245-0.019   c22.983,0,41.682,18.557,41.682,41.366c0,0.735-0.021,1.468-0.06,2.198c-0.007,0.137-0.022,0.272-0.031,0.409   c-0.038,0.599-0.081,1.196-0.146,1.791c-0.013,0.122-0.032,0.243-0.047,0.365c-0.07,0.609-0.148,1.217-0.246,1.82   c-0.017,0.103-0.038,0.203-0.055,0.305c-0.105,0.62-0.221,1.238-0.354,1.851c-0.02,0.094-0.044,0.187-0.064,0.281   c-0.139,0.617-0.288,1.23-0.454,1.838c-0.025,0.094-0.054,0.187-0.08,0.281c-0.168,0.6-0.349,1.197-0.544,1.788   c-0.034,0.105-0.071,0.21-0.106,0.316c-0.193,0.569-0.398,1.135-0.616,1.695c-0.049,0.126-0.098,0.251-0.148,0.376   c-0.211,0.53-0.436,1.055-0.668,1.576c-0.067,0.148-0.134,0.297-0.202,0.444c-0.225,0.486-0.461,0.966-0.704,1.443   c-0.089,0.173-0.176,0.348-0.268,0.52c-0.23,0.437-0.474,0.867-0.72,1.295c-0.115,0.2-0.228,0.403-0.346,0.601   c-0.23,0.386-0.475,0.764-0.718,1.143c-0.146,0.226-0.285,0.456-0.436,0.679c-0.217,0.324-0.448,0.64-0.676,0.958   c-0.842,1.179-1.741,2.313-2.699,3.396c-0.146,0.165-0.286,0.332-0.434,0.494c-0.302,0.33-0.613,0.65-0.926,0.971   c-0.175,0.18-0.348,0.361-0.525,0.538c-0.306,0.302-0.619,0.597-0.934,0.89c-0.2,0.187-0.4,0.373-0.605,0.556   c-7.321,6.553-16.979,10.548-27.555,10.548c-4.143,0-7.5,3.358-7.5,7.5s3.357,7.5,7.5,7.5c10.6,0,20.522-2.945,29.001-8.054   c1.932,5.452,2.956,11.219,2.956,17.039c0,28.129-22.885,51.015-51.014,51.015c-8.353,0-16.311-1.956-23.652-5.813   c-4.898-2.573-9.332-5.913-13.179-9.928c-0.396-0.412-0.828-0.764-1.285-1.066c2.128-9.81,5.211-15.878,8.628-22.597   c1.159-2.278,2.356-4.633,3.577-7.231c0.031-0.066,0.054-0.134,0.083-0.201c6.791,3.322,13.978,5.661,21.487,6.932   c0.424,0.072,0.845,0.106,1.26,0.106c3.593,0,6.767-2.59,7.386-6.25c0.691-4.084-2.06-7.955-6.144-8.646   c-8.842-1.496-17.154-4.782-24.707-9.767c-3.048-2.012-5.907-4.27-8.553-6.74c4.216-2.637,8.206-5.682,11.914-9.119   c3.037-2.815,3.218-7.561,0.402-10.599c-2.816-3.038-7.562-3.218-10.6-0.402c-11.94,11.067-27.489,17.162-43.784,17.162   c-17.96,0-34.631-7.208-46.941-20.295c-2.838-3.018-7.585-3.163-10.602-0.324c-3.017,2.838-3.162,7.584-0.324,10.602   c5.383,5.723,11.57,10.551,18.291,14.408c-2.194,1.917-4.521,3.692-6.971,5.309c-7.55,4.985-15.861,8.271-24.704,9.767   c-4.084,0.691-6.835,4.562-6.144,8.646c0.619,3.661,3.793,6.25,7.386,6.25c0.415,0,0.836-0.034,1.26-0.106   c10.913-1.846,21.164-5.896,30.466-12.038c4.918-3.245,9.438-7.016,13.497-11.228c0.803,0.265,1.611,0.509,2.423,0.749V310   c0,4.142,3.357,7.5,7.5,7.5s7.5-3.358,7.5-7.5v-10.433c2.44,0.229,4.896,0.362,7.363,0.362c1.553,0,3.097-0.061,4.637-0.149V324   c0,4.142,3.357,7.5,7.5,7.5s7.5-3.358,7.5-7.5v-26.54c2.793-0.71,5.539-1.571,8.231-2.579c3.283,3.533,6.896,6.761,10.787,9.656   c-0.377,0.464-0.711,0.974-0.977,1.54c-1.121,2.386-2.265,4.635-3.371,6.81c-8.029,15.789-14.965,29.425-12.821,85.928   c0.152,4.042,3.479,7.216,7.489,7.216c0.096,0,0.192-0.002,0.289-0.005c4.14-0.157,7.367-3.64,7.21-7.779   c-0.611-16.139-0.486-28.4,0.192-38.069c3.093,2.409,6.386,4.549,9.87,6.38c9.382,4.929,19.974,7.534,30.629,7.534   c36.4,0,66.014-29.614,66.014-66.015c0-9.285-1.972-18.485-5.74-26.922C401.969,280.975,402.123,280.789,402.287,280.609z    M359.221,201.355c0.003,0,0.006,0,0.009,0c-0.034,0.003-0.067,0.013-0.102,0.016C359.16,201.368,359.189,201.358,359.221,201.355z   "/><path d="M261.384,402.578c-8.396-0.507-16.763-3.975-21.836-9.05c-1.799-1.799-1.566-11.431-1.396-18.463   c0.289-11.996,0.649-26.925-3.418-43.916c-0.965-4.028-5.013-6.513-9.04-5.548c-4.028,0.964-6.512,5.012-5.548,9.04   c3.612,15.09,3.278,28.936,3.01,40.062c-0.312,12.899-0.557,23.087,5.785,29.43c7.669,7.672,19.459,12.688,31.539,13.417   c0.154,0.009,0.307,0.014,0.459,0.014c3.936,0,7.239-3.067,7.479-7.048C268.668,406.382,265.519,402.828,261.384,402.578z"/></g></svg>